<svg fill="#000000" width="800px" height="800px" viewBox="0 0 32 32" xmlns="http://www.w3.org/2000/svg"><path d="M29.667 15.76c0-1.885-1.276-3.536-3.104-4.015l3.984-11.745h-19.74l3.996 11.787c-1.772 0.516-2.991 2.135-2.996 3.979 0 1.391 0.693 2.625 1.751 3.385-0.421 0.599-0.907 1.152-1.443 1.656-0.984 0.939-2.141 1.683-3.401 2.199-1.115-0.751-1.593-2.079-1.161-3.26 4.531-1.412 3.531-8.089-1.208-8.109-2.292 0.004-4.151 1.859-4.151 4.151 0 1.131 0.457 2.167 1.203 2.911-0.068 0.125-0.131 0.261-0.199 0.396-0.619 1.281-1.323 2.724-1.593 4.344-0.536 3.245 0.344 5.849 2.469 7.323 1.145 0.808 2.52 1.245 3.927 1.24 2.432 0 4.907-1.224 7.297-2.412 1.708-0.839 3.468-1.719 5.197-2.145 0.641-0.156 1.308-0.249 2.011-0.355 1.427-0.203 2.901-0.416 4.224-1.187 1.531-0.875 2.599-2.385 2.911-4.12 0.229-1.323 0-2.656-0.593-3.828 0.401-0.641 0.62-1.385 0.62-2.193z"/></svg>
