<svg fill="#000000" width="800px" height="800px" viewBox="0 0 32 32" version="1.1" xmlns="http://www.w3.org/2000/svg"><title>sql</title><path d="M15.111 25.101h-2.186v-1.867h2.186v1.867zM18.111 25.101h-2.185v-1.867h2.185v1.867zM21.111 25.101h-2.186v-1.867h2.186v1.867zM24.111 25.101h-2.186v-1.867h2.186v1.867zM27.111 25.101h-2.186v-1.867h2.186v1.867zM6.111 2.046v21.188h23.189v-21.188h-23.189zM27.29 21.233h-19.189v-17.189h19.189v17.189zM10.111 7.046v2.186h11.189v-2.186h-11.189zM10.111 11.046v2.186h7.189v-2.186h-7.189zM10.111 15.046v2.186h15.189v-2.186h-15.189z"/></svg>
